# xmcd
#
# Track frame offsets:
#	150
#	16788
#	30719
#	40732
#	53974
#	64451
#	79649
#	101351
#	121332
#	135163
#	156279
#	171826
#	187568
#	204308
#	229284
#
# Disc length: 3277 seconds
#
# Revision: 1
# Processed by: cddbd v1.5.2PL0 Copyright (c) Steve Scherf et al.
# Submitted via: audiograbber 1.83.01
#
DISCID=b50ccb0f
DTITLE=Various Artist - CB60037
DYEAR=1900
DGENRE=
TTITLE0=Christmas/Cornelius, Helen - Mary Did You Know
TTITLE1=Christmas/Hunley, Con - Jolly Old St. Nicholas
TTITLE2=Christmas/Presley, Elvis - I'll Be Home For Christmas
TTITLE3=Christmas/Travis, Randy - Meet Me Under The Mistletoe
TTITLE4=Christmas/Helms, Bobby - Jingle Bell Rock
TTITLE5=Christmas/Thomas, B J - Jingle Bells
TTITLE6=Christmas/Gilley, Mickey - Blue Christmas
TTITLE7=Christmas/Boxcar Willie - O' Come All Ye Faithful
TTITLE8=Christmas/Presley, Elvis - If Every Day Was Like Christmas
TTITLE9=Christmas/Strait, George - There's A New Kid In Town
TTITLE10=Christmas/Judds, The - Beautiful Star Of Bethlehem
TTITLE11=Christmas/Travis, Randy - White Christmas Makes Me Blue
TTITLE12=Christmas/Judd, Wynonna - Let's Make A Baby King
TTITLE13=Christmas/McEntire, Reba - Christmas Guest, The
TTITLE14=Christmas/Boxcar Willie - Auld Lang Syne
EXTD=
EXTT0=
EXTT1=
EXTT2=
EXTT3=
EXTT4=
EXTT5=
EXTT6=
EXTT7=
EXTT8=
EXTT9=
EXTT10=
EXTT11=
EXTT12=
EXTT13=
EXTT14=
PLAYORDER=
